<svg width="63" height="65" viewBox="0 0 63 65" fill="none" xmlns="http://www.w3.org/2000/svg">
<path class="hw_svg__fill" d="M60.8189 3.77448C63.5971 6.55138 63.5971 11.0523 60.8172 13.8308L42.1375 32.5012L60.8176 51.1721C63.5966 53.9497 63.5958 58.4514 60.8171 61.2273C59.4279 62.6158 57.6083 63.3108 55.7889 63.3103C53.9672 63.3097 52.1475 62.6162 50.7597 61.2278L32.0767 42.5556L13.3947 61.2283C12.0064 62.6159 10.1878 63.3099 8.36518 63.3099C6.54709 63.31 4.72713 62.6154 3.33793 61.2269C0.559394 58.4512 0.558953 53.9498 3.33843 51.1717L22.0185 32.5009L3.33817 13.8298C0.559516 11.0525 0.560074 6.54958 3.3383 3.77273C6.11628 0.997626 10.6172 0.99682 13.397 3.77222L32.0792 22.4452L50.7612 3.77248C53.5404 0.997633 58.0397 0.999451 60.8189 3.77448Z" fill="#090909"/>
</svg>
