<svg width="48" height="47" viewBox="0 0 48 47" fill="none" xmlns="http://www.w3.org/2000/svg">
<path class="hw_svg__fill" d="M18.6968 22.6699L24.2704 17.1355L46.7365 39.4434C48.2756 40.9717 48.2756 43.4495 46.7365 44.9778V44.9778C45.1974 46.5061 42.702 46.5061 41.1629 44.9778L18.6968 22.6699Z" fill="white"/>
<path class="hw_svg__fill" d="M18.925 22.4504L24.555 28.0407L7.44489 45.0302C5.89023 46.574 3.36962 46.574 1.81496 45.0302V45.0302C0.260302 43.4865 0.260302 40.9837 1.81496 39.44L18.925 22.4504Z" fill="white"/>
<path class="hw_svg__fill" d="M18.6968 5.95721L24.2704 0.422836L46.7365 22.7307C48.2756 24.259 48.2756 26.7368 46.7365 28.2651V28.2651C45.1974 29.7934 42.702 29.7934 41.1629 28.2651L18.6968 5.95721Z" fill="white"/>
<path class="hw_svg__fill" d="M18.925 5.73767L24.555 11.3279L7.44489 28.3175C5.89023 29.8612 3.36962 29.8612 1.81496 28.3175V28.3175C0.260302 26.7738 0.260302 24.271 1.81496 22.7273L18.925 5.73767Z" fill="white"/>
</svg>
